<svg width="230" height="120" viewBox="0 0 230 120" fill="none" xmlns="http://www.w3.org/2000/svg">
<path d="M59.9718 119.624C82.15 119.624 101.386 108.07 111.117 90.398L81.4711 73.4059C77.8501 81.3356 69.4767 86.0934 59.5191 86.0934C44.8091 86.0934 33.9463 75.445 33.9463 59.8122C33.9463 44.1795 44.8091 33.5311 59.5191 33.5311C69.4767 33.5311 77.6238 38.2889 81.4711 46.2185L111.117 28.9999C101.386 11.5546 81.9237 0 59.9718 0C25.5729 0 0 26.0546 0 59.8122C0 93.5699 25.5729 119.624 59.9718 119.624Z" fill="white"/>
<path d="M67.3733 59.3325C67.3733 64.8097 62.9381 69.2498 57.467 69.2498C51.9959 69.2498 47.5607 64.8097 47.5607 59.3325C47.5607 53.8553 51.9959 49.4151 57.467 49.4151C62.9381 49.4151 67.3733 53.8553 67.3733 59.3325Z" fill="white"/>
<path d="M67.3733 59.3325C67.3733 64.8097 62.9381 69.2498 57.467 69.2498C51.9959 69.2498 47.5607 64.8097 47.5607 59.3325C47.5607 53.8553 51.9959 49.4151 57.467 49.4151C62.9381 49.4151 67.3733 53.8553 67.3733 59.3325Z" fill="white"/>
<path d="M170.028 0.375546C147.85 0.375544 128.614 11.9302 118.883 29.602L148.529 46.5941C152.15 38.6644 160.523 33.9066 170.481 33.9066C185.191 33.9066 196.054 44.555 196.054 60.1878C196.054 75.8205 185.191 86.4689 170.481 86.4689C160.523 86.4689 152.376 81.7111 148.529 73.7815L118.883 91.0001C128.614 108.445 148.076 120 170.028 120C204.427 120 230 93.9454 230 60.1878C230 26.4301 204.427 0.375549 170.028 0.375546Z" fill="white"/>
<path d="M160.054 60.6675C160.054 55.1903 164.489 50.7502 169.96 50.7502C175.431 50.7502 179.867 55.1903 179.867 60.6675C179.867 66.1447 175.431 70.5849 169.96 70.5849C164.489 70.5849 160.054 66.1447 160.054 60.6675Z" fill="white"/>
<path d="M160.054 60.6675C160.054 55.1903 164.489 50.7502 169.96 50.7502C175.431 50.7502 179.867 55.1903 179.867 60.6675C179.867 66.1447 175.431 70.5849 169.96 70.5849C164.489 70.5849 160.054 66.1447 160.054 60.6675Z" fill="white"/>
</svg>
